<svg width="52" height="56" viewBox="0 0 52 56" fill="none" xmlns="http://www.w3.org/2000/svg">
<path d="M32.0549 43.6895C26.5331 43.6895 22.3197 39.7321 20.895 37.516L18.9955 39.4155L15.1964 43.2146C15.7504 44.0061 17.3334 45.9689 19.2329 47.4886C21.6074 49.3881 26.8311 52 32.7672 52C45.8265 52 52.0001 40.6027 52.0001 29.2055H32.7672V35.8539H42.7398C42.7398 36.0913 42.6448 36.7562 42.2649 37.516C41.79 38.4657 38.9407 43.6895 32.0549 43.6895Z" fill="#3D3D3D"/>
<mask id="mask0_37_18" style="mask-type:alpha" maskUnits="userSpaceOnUse" x="0" y="0" width="48" height="56">
<path d="M4.27397 0V49.863V50.1005L0 54.3744L0.712329 55.0868L47.2511 8.54795L46.5388 7.83562L42.7397 11.6347V0L23.5068 19.2329L4.27397 0Z" fill="#3D3D3D"/>
</mask>
<g mask="url(#mask0_37_18)">
<path d="M60.5479 -6.17349L11.6347 42.7397V18.9955L23.2694 30.6302L60.073 -6.17349H-15.4338V63.1598H60.5479V-6.17349Z" fill="#3D3D3D" stroke="#3D3D3D"/>
</g>
</svg>
